<?xml version="1.0" encoding="UTF-8"?>
<svg id="_图层_1" data-name="图层_1" xmlns="http://www.w3.org/2000/svg" xmlns:xlink="http://www.w3.org/1999/xlink" version="1.1" viewBox="0 0 20 20">
  <!-- Generator: Adobe Illustrator 29.1.0, SVG Export Plug-In . SVG Version: 2.1.0 Build 142)  -->
  <defs>
    <style>
      .st0 {
        fill: #fff;
      }

      .st0, .st1 {
        fill-rule: evenodd;
      }

      .st1 {
        fill: #4b2e2b;
      }
    </style>
    <mask id="mask" x="1" y="1" width="18" height="18" maskUnits="userSpaceOnUse">
      <g id="mask-2">
        <path id="path-11" data-name="path-1" class="st0" d="M17,1c1.1,0,2,.9,2,2v14c0,1.1-.9,2-2,2H3c-1.1,0-2-.9-2-2V3C1,1.9,1.9,1,3,1h14ZM10,3.9c-3.6,0-6.6,2.4-6.6,5.3s2.3,4.8,5.5,5.2c.8.2.7.4.5,1.5,0,.2-.1.6.6.4s3.8-2.2,5.2-3.8c.9-1,1.4-2.1,1.4-3.3,0-2.9-2.9-5.3-6.6-5.3ZM9.8,7.8s0,0,.1,0l1.3,1.8v-1.7c0,0,0-.1.1-.1h.5c0,0,.1,0,.1.1v2.9c0,0,0,.1-.1.1h-.5s0,0-.1,0l-1.3-1.8v1.7c0,0,0,.1-.1.1h-.5c0,0-.1,0-.1-.1v-2.9c0,0,0-.1.1-.1h.5ZM8.6,7.8c0,0,.1,0,.1,0h0v2.9c0,0,0,.1,0,.1h0s-.5,0-.5,0c0,0-.1,0-.1,0h0v-2.9c0,0,0-.1,0-.1h0s.5,0,.5,0ZM14.3,7.8c0,0,.1,0,.1,0h0v.5c0,0,0,.1,0,.1h0s-1.2,0-1.2,0v.5h1.2c0,0,.1,0,.1,0h0v.5c0,0,0,.1,0,.1h0s-1.2,0-1.2,0v.5h1.2c0,0,.1,0,.1,0h0v.5c0,0,0,.1,0,.1h0s-1.8,0-1.8,0c0,0-.1,0-.1,0h0v-2.9c0,0,0-.1,0-.1h0s1.8,0,1.8,0ZM6.2,7.8c0,0,.1,0,.1,0h0v2.3h1.2c0,0,.1,0,.1,0h0v.5c0,0,0,.1,0,.1h0s-1.8,0-1.8,0c0,0,0,0,0,0,0,0,0,0,0,0h0v-2.9c0,0,0-.1,0-.1h0s.5,0,.5,0Z"/>
      </g>
    </mask>
  </defs>
  <g id="icons_x2F_line-w">
    <g id="line">
      <g id="Combined-Shape">
        <path id="path-1" class="st1" d="M17,1c1.1,0,2,.9,2,2v14c0,1.1-.9,2-2,2H3c-1.1,0-2-.9-2-2V3C1,1.9,1.9,1,3,1h14ZM10,3.9c-3.6,0-6.6,2.4-6.6,5.3s2.3,4.8,5.5,5.2c.8.2.7.4.5,1.5,0,.2-.1.6.6.4s3.8-2.2,5.2-3.8c.9-1,1.4-2.1,1.4-3.3,0-2.9-2.9-5.3-6.6-5.3ZM9.8,7.8s0,0,.1,0l1.3,1.8v-1.7c0,0,0-.1.1-.1h.5c0,0,.1,0,.1.1v2.9c0,0,0,.1-.1.1h-.5s0,0-.1,0l-1.3-1.8v1.7c0,0,0,.1-.1.1h-.5c0,0-.1,0-.1-.1v-2.9c0,0,0-.1.1-.1h.5ZM8.6,7.8c0,0,.1,0,.1,0h0v2.9c0,0,0,.1,0,.1h0s-.5,0-.5,0c0,0-.1,0-.1,0h0v-2.9c0,0,0-.1,0-.1h0s.5,0,.5,0ZM14.3,7.8c0,0,.1,0,.1,0h0v.5c0,0,0,.1,0,.1h0s-1.2,0-1.2,0v.5h1.2c0,0,.1,0,.1,0h0v.5c0,0,0,.1,0,.1h0s-1.2,0-1.2,0v.5h1.2c0,0,.1,0,.1,0h0v.5c0,0,0,.1,0,.1h0s-1.8,0-1.8,0c0,0-.1,0-.1,0h0v-2.9c0,0,0-.1,0-.1h0s1.8,0,1.8,0ZM6.2,7.8c0,0,.1,0,.1,0h0v2.3h1.2c0,0,.1,0,.1,0h0v.5c0,0,0,.1,0,.1h0s-1.8,0-1.8,0c0,0,0,0,0,0,0,0,0,0,0,0h0v-2.9c0,0,0-.1,0-.1h0s.5,0,.5,0Z"/>
      </g>
    </g>
  </g>
</svg>