<svg xmlns="http://www.w3.org/2000/svg" viewBox="0 0 40 40"><defs><style>.cls-1{fill:#8a1c3a;}</style></defs><g id="圖層_2" data-name="圖層 2"><path class="cls-1" d="M39.31,16H32.6c0-1.78-.44-5.38-.26-6.08l1-3.67.22.06L33.88,5a.17.17,0,0,0-.12-.21l-1.54-.42a.17.17,0,0,0-.21.12l-.35,1.33.19,0c-.3,1.13-.94,3.56-1,3.67-.34,1.26-3.2,4.73-3.52,5.94l-.15.53H25L23.29,9.26C23,8.14,21.33,7.64,21,7.37L20,3.23l.12,0L20,2.7l-.2-.2-1.57.4-.09.32.11.46.12,0,1,4.14c-.17.37-1.36,1.59-1.07,2.74L19.7,16H13.64a.69.69,0,0,0-.69.7v3.91H5.23a.68.68,0,0,0-.57.32L.12,27.81a.75.75,0,0,0-.12.4V34a.7.7,0,0,0,.69.71H5.37a3.47,3.47,0,0,0,6.83,0H30.41a3.47,3.47,0,0,0,6.83,0h2.07A.7.7,0,0,0,40,34V16.73A.69.69,0,0,0,39.31,16Zm-30.52,20A2.13,2.13,0,1,1,10.89,34,2.11,2.11,0,0,1,8.79,36.08ZM13,33.24H12.2a3.47,3.47,0,0,0-6.83,0h-4V28.43L5.6,22.05H13Zm20.87,2.84A2.13,2.13,0,1,1,35.92,34,2.12,2.12,0,0,1,33.82,36.08Zm4.8-2.84H37.24a3.47,3.47,0,0,0-6.83,0H14.33V17.44H38.62Z"/><path class="cls-1" d="M3.43,28.09a.69.69,0,0,0,.61.38h7a.7.7,0,0,0,.69-.71V24a.69.69,0,0,0-.69-.7H6.55a.67.67,0,0,0-.57.31l-2.51,3.8A.69.69,0,0,0,3.43,28.09Zm3.49-3.43h3.39v2.4h-5Z"/><path class="cls-1" d="M26.48,30.83a5.49,5.49,0,0,0,4.95-7.64,1.57,1.57,0,0,0-.62.4.47.47,0,0,0-.07.12L30.06,25c-.33-.64-.6-1.16-.69-1.31a.75.75,0,0,0-.07-.12,1.66,1.66,0,0,0-1-.49H31.4a5.39,5.39,0,0,0-4.92-3.25,5.49,5.49,0,0,0,0,11Zm.13-7.73c.34,0,.55.42.55.42L29,27.11l-.73,1.42S26,24.18,25.75,23.7a1.58,1.58,0,0,0-1-.6Zm-2.6,0c.34,0,.55.42.55.42l1.65,3.26.16.33-.72,1.42s-2.23-4.35-2.5-4.83a1.58,1.58,0,0,0-1-.6Z"/></g></svg>