<?xml version="1.0" encoding="UTF-8"?>
<svg id="_图层_1" data-name="图层_1" xmlns="http://www.w3.org/2000/svg" version="1.1" viewBox="0 0 20 20">
  <!-- Generator: Adobe Illustrator 29.1.0, SVG Export Plug-In . SVG Version: 2.1.0 Build 142)  -->
  <defs>
    <style>
      .st0 {
        fill: #4b2e2b;
        fill-rule: evenodd;
      }
    </style>
  </defs>
  <g id="icons_x2F_ig-w">
    <g id="instagram-square">
      <path id="Shape" class="st0" d="M10,7.9c-1.2,0-2.1,1-2.1,2.1,0,1.2,1,2.1,2.1,2.1,1.2,0,2.1-1,2.1-2.1,0-1.2-1-2.1-2.1-2.1h0ZM15,6.2c-.2-.6-.7-1-1.2-1.2-.8-.3-2.9-.3-3.8-.3s-2.9,0-3.8.3c-.6.2-1,.7-1.2,1.2-.3.8-.3,2.9-.3,3.8s0,2.9.3,3.8c.2.6.7,1,1.2,1.2.8.3,2.9.3,3.8.3s2.9,0,3.8-.3c.6-.2,1-.7,1.2-1.2.3-.8.3-2.9.3-3.8s0-2.9-.3-3.8h0ZM10,13.3c-1.8,0-3.3-1.5-3.3-3.3s1.5-3.3,3.3-3.3,3.3,1.5,3.3,3.3c0,.9-.3,1.7-1,2.3-.6.6-1.5,1-2.3,1h0ZM13.4,7.3c-.3,0-.6-.2-.7-.5-.1-.3,0-.6.2-.8.2-.2.6-.3.8-.2s.5.4.5.7c0,.2,0,.4-.2.5s-.3.2-.5.2h0ZM17.1,1H2.9c-1.1,0-1.9.9-1.9,1.9v14.1c0,1.1.9,1.9,1.9,1.9h14.1c1.1,0,1.9-.9,1.9-1.9V2.9c0-1.1-.9-1.9-1.9-1.9h0ZM16.4,12.7c0,1-.3,1.9-1,2.7s-1.7,1-2.7,1c-1.1,0-4.2,0-5.3,0-1,0-1.9-.3-2.7-1-.8-.8-1-1.7-1-2.7,0-1.1,0-4.2,0-5.3,0-1,.3-1.9,1-2.7.8-.7,1.7-1,2.7-1,1.1,0,4.2,0,5.3,0,1,0,1.9.3,2.7,1,.8.8,1,1.7,1,2.7,0,1.1,0,4.2,0,5.3Z"/>
    </g>
  </g>
</svg>