<?xml version="1.0" encoding="UTF-8"?><svg xmlns="http://www.w3.org/2000/svg" viewBox="0 0 40 40"><defs><style>.e{fill:#8a1c3a;}</style></defs><g id="a"/><g id="b"/><g id="c"><g><path class="e" d="M14.27,20.22s-.02,0-.03,0c-2.7-.09-5.21-1.22-7.06-3.19-1.85-1.97-2.82-4.55-2.73-7.25s1.22-5.2,3.2-7.05C9.61,.88,12.18-.1,14.9,0c2.7,.09,5.21,1.22,7.06,3.19s2.82,4.54,2.73,7.24c-.02,.56-.47,1.03-1.04,.98-.56-.02-1-.48-.98-1.04,.07-2.16-.71-4.22-2.19-5.8-1.48-1.58-3.49-2.48-5.65-2.56-2.16-.07-4.23,.71-5.81,2.18-1.58,1.48-2.49,3.48-2.56,5.64-.07,2.16,.71,4.22,2.19,5.8,1.48,1.58,3.49,2.48,5.65,2.56,.56,.02,1,.48,.98,1.04-.02,.55-.47,.98-1.01,.98Z"/><g><path class="e" d="M16.92,13.06c.05-.06,.1-.13,.14-.2,.03-.06,.07-.12,.09-.18-.1,.11-.18,.23-.23,.38Z"/><path class="e" d="M32.49,25.35c3.36-4.39,1.37-11.91,1.29-12.23-.12-.44-.52-.74-.97-.74h-14.94c-.28,0-.53,.11-.72,.3-.02,.06-.06,.12-.09,.18-.04,.07-.09,.14-.14,.2v.02s0,.04-.02,.06c-.08,.32-1.87,7.81,1.58,12.19,1.32,1.69,3.2,2.67,5.6,2.94,0,1.7,.01,5.79,.01,6.7-.34,.66-2.39,3.02-5.13,3.02h-.48c-.56,0-1,.45-1,1s.44,1,1,1h12.96c.55,0,1-.44,1-1s-.45-1-1-1h-.09c-1.2,0-4.96-1.87-5.25-2.96,0-.78-.01-4.91-.01-6.69,2.82-.12,4.97-1.12,6.4-2.99Zm-6.97,1c-2.45,0-4.29-.76-5.46-2.25-2.28-2.89-1.7-7.83-1.37-9.72h13.32c.38,1.87,1.11,6.84-1.11,9.75-1.15,1.49-2.91,2.22-5.38,2.22Z"/></g><path class="e" d="M17.15,12.68c-.02,.06-.06,.12-.09,.18-.04,.07-.09,.14-.14,.2v.02c-.42,.54-1.04,.85-1.7,.97-.11,.02-.31-.02-.31,.11v.96c0,.15,.05,.21-.11,.21h-.68c-.14,0-.25,.06-.25-.09v-.64c0-.08,.05-.44,0-.5-.32-.03-.64-.1-.94-.23-.59-.25-1.04-.72-1.31-1.3-.04-.1-.33-.81-.25-.84l.48-.12c.37-.1,.74-.19,1.1-.29,.1,.62,.43,1.18,1.09,1.32,.7,.14,1.53-.12,1.53-.95s-1.01-1.03-1.62-1.24c-.71-.25-1.46-.55-1.9-1.19-.49-.72-.53-1.7-.18-2.48,.32-.74,.92-1.2,1.7-1.37,.12-.03,.3,.01,.3-.14v-.87s.93,0,1.03,0c.01,0,.01,.47,.01,.5,0,.15-.08,.44,.09,.46,.66,.1,1.27,.41,1.68,.96,.22,.3,.37,.64,.48,1-.03,.05-.3,.12-.36,.14-.35,.15-.71,.3-1.07,.44-.17-.49-.47-1.03-1.02-1.17-.56-.14-1.19,.18-1.24,.8-.06,.62,.45,.85,.94,1.05,.59,.25,1.21,.44,1.78,.75,.02,0,.05,.02,.08,.04,.07,.04,.1,.06,.1,.06,1.06,.69,1.32,2.15,.78,3.25Z"/><path class="e" d="M20.02,19.09h10.72s1.15,5.94-4.91,5.94c-5.42,0-5.81-3.07-5.81-5.94Z"/></g></g><g id="d"/></svg>