<?xml version="1.0" encoding="UTF-8"?><svg xmlns="http://www.w3.org/2000/svg" viewBox="0 0 40 40"><defs><style>.e{fill:#8a1c3a;}</style></defs><g id="a"/><g id="b"/><g id="c"><g><g><path class="e" d="M39.99,38.88c.04,.28-.05,.57-.24,.79-.19,.21-.47,.34-.76,.34H1.01c-.29,0-.56-.13-.76-.34-.19-.22-.28-.51-.24-.79,.66-5.15,3.28-10.35,7.08-14.17,.26,.21,.53,.4,.83,.55,.33,.18,.69,.33,1.08,.44-3.45,3.31-5.94,7.87-6.8,12.3H37.8c-1.41-7.26-7.2-14.87-14.41-16.75,.52-.17,1.03-.37,1.51-.61,.39-.19,.76-.4,1.11-.64,7.34,2.97,12.97,10.99,13.98,18.88Z"/><path class="e" d="M30.99,10.89c0,3.81-1.98,7.17-4.98,9.11-.35,.24-.72,.45-1.11,.64-.48,.24-.99,.44-1.51,.61-1.07,.34-2.21,.53-3.39,.53-1.1,0-2.16-.16-3.17-.46,0-.04,.02-.09,.02-.13,.06-.29,.1-.59,.13-.88,0-.07,.01-.13,.01-.19,.02-.29,.03-.57,.03-.85,.93,.33,1.94,.51,2.98,.51,1.16,0,2.27-.22,3.29-.62,3.33-1.3,5.68-4.52,5.68-8.27,0-4.9-4.02-8.88-8.97-8.88s-8.97,3.98-8.97,8.88c0,1.62,.44,3.14,1.2,4.44h-2.27c-.61-1.36-.95-2.86-.95-4.44C9.01,4.89,13.94,.01,20,.01s10.99,4.88,10.99,10.88Z"/></g><path class="e" d="M24.21,7.35c-1.62,0-2.96,1.22-3.15,2.78h-2.12c-.19-1.56-1.53-2.78-3.15-2.78-1.75,0-3.18,1.43-3.18,3.18s1.43,3.18,3.18,3.18c1.55,0,2.84-1.12,3.12-2.58h2.18c.28,1.46,1.57,2.58,3.12,2.58,1.75,0,3.18-1.43,3.18-3.18s-1.43-3.18-3.18-3.18Zm-8.42,5.36c-1.2,0-2.18-.98-2.18-2.18s.98-2.18,2.18-2.18,2.18,.98,2.18,2.18-.98,2.18-2.18,2.18Zm8.42,0c-1.2,0-2.18-.98-2.18-2.18s.98-2.18,2.18-2.18,2.18,.98,2.18,2.18-.98,2.18-2.18,2.18Z"/></g><path class="e" d="M17.01,19.09c-.02-1.8-.41-3.27-.44-3.39-.06-.21-.26-.37-.48-.37H5.8c-.24,0-.44,.16-.49,.39-.05,.21-1.26,5.29,1.05,8.24,.22,.28,.46,.53,.73,.75,.26,.21,.53,.4,.83,.55,.33,.18,.69,.33,1.08,.44,.24,.07,.5,.12,.76,.16v4.79c-.29,.46-1.59,1.85-3.21,1.85h-.33c-.56,0-1,.45-1,1s.44,1,1,1H15.14c.55,0,1-.44,1-1s-.45-1-1-1h-.06c-.76,0-3.05-1.18-3.31-1.78v-4.78c1.72-.13,3.05-.79,3.94-1.96,.59-.78,.94-1.71,1.12-2.66,0-.04,.02-.09,.02-.13,.06-.29,.1-.59,.13-.88,0-.07,.01-.13,.01-.19,.02-.29,.03-.57,.03-.85,0-.06,0-.12,0-.18Zm-1,.24c0,.2-.01,.41-.02,.61,0,.14-.01,.29-.03,.43-.02,.2-.05,.41-.08,.61-.03,.18-.07,.35-.11,.52-.17,.68-.44,1.33-.85,1.87-.82,1.06-2.11,1.6-3.85,1.6-.41,0-.8-.03-1.16-.09-.44-.07-.85-.19-1.21-.35-.33-.14-.62-.31-.89-.52-.24-.19-.46-.41-.66-.66-1.68-2.14-1.17-5.83-.95-7.02H15.69c.1,.5,.27,1.43,.31,2.51,.01,.16,.01,.32,.01,.48h0Z"/><path class="e" d="M14.82,20.5c0,.08-.01,.17-.02,.25-.04,.4-.13,.81-.29,1.21-.43,1.12-1.41,2.1-3.5,2.1h-.07c-.55,0-1.02-.09-1.43-.23-.37-.11-.69-.28-.96-.49-1.91-1.42-1.47-4.48-1.47-4.48h7.65s.04,.18,.07,.47c.01,.1,.02,.22,.02,.35,.02,.24,.02,.52,0,.82Z"/></g><g id="d"/></svg>