<?xml version="1.0" encoding="UTF-8"?>
<svg id="_图层_1" data-name="图层_1" xmlns="http://www.w3.org/2000/svg" version="1.1" viewBox="0 0 20 20">
  <!-- Generator: Adobe Illustrator 29.1.0, SVG Export Plug-In . SVG Version: 2.1.0 Build 142)  -->
  <defs>
    <style>
      .st0 {
        fill: #4b2e2b;
        fill-rule: evenodd;
      }
    </style>
  </defs>
  <g id="icons_x2F_facebook-w">
    <g id="facebook-square">
      <path id="Path" class="st0" d="M17.1,1H2.9c-1.1,0-1.9.9-1.9,1.9v14.1c0,1.1.9,1.9,1.9,1.9h5.5v-6.1h-2.5v-2.9h2.5v-2.2c0-2.5,1.5-3.9,3.8-3.9s2.2.2,2.2.2v2.5h-1.3c-1.2,0-1.6.8-1.6,1.6v1.9h2.8l-.4,2.9h-2.3v6.1h5.5c1.1,0,1.9-.9,1.9-1.9V2.9c0-1.1-.9-1.9-1.9-1.9h0Z"/>
    </g>
  </g>
</svg>