<?xml version="1.0" encoding="UTF-8"?>
<svg id="_圖層_1" data-name="圖層_1" xmlns="http://www.w3.org/2000/svg" version="1.1" viewBox="0 0 477.7 198.6">
  <!-- Generator: Adobe Illustrator 29.5.1, SVG Export Plug-In . SVG Version: 2.1.0 Build 141)  -->
  <defs>
    <style>
      .st0 {
        fill: #b23a48;
      }

      .st1 {
        fill: #4b2e2b;
      }
    </style>
  </defs>
  <g>
    <path class="st0" d="M132.08,71.63h20.09c1.43,3.11,13.79,31.22-1.66,59.6-13.17,24.2-36.99,31-41.19,32.13v-16.74c2.54-1.06,22.97-9.98,29.46-33.14,6.15-21.92-5.02-39.33-6.7-41.85Z"/>
    <path class="st0" d="M91.35,71.63v16.96c5.4-1.25,10.94.62,13.39,5.36,2.22,4.3,1.52,9.65-1.79,13.39-3.03,3.05-7.56,4.1-11.61,2.68-2.65-.93-4.81-2.82-6.11-5.22-.88-1.62-1.26-3.47-1.26-5.31V35.25s-40.62.67-45.53,48.43c0,0,13.17-22.99,28.79-23.21v39.53c0,7.02,2.36,13.91,6.96,19.21,3.58,4.12,8.25,7.18,13.57,8.65,12.48,3.46,26.32-2.44,33.03-14.51,5.65-9.97,4.85-22.32-2.01-31.25-6.37-8.3-16.99-12.35-27.45-10.49Z"/>
  </g>
  <g>
    <g>
      <path class="st0" d="M187.65,67.85h-5.54c-3.45,0-5.41.07-7.23.34v-9.67c1.89.27,3.58.34,7.37.34h3.79v-4.6h-2.77c-2.91,0-4.33.07-6.49.27v-9.53c1.62.27,3.24.34,6.56.34h2.7v-1.01c0-2.64-.07-3.85-.41-5.48h10.55c-.34,1.62-.41,2.97-.41,5.48v1.01h1.22c3.11,0,4.26-.07,5.81-.34v9.53c-1.89-.2-3.11-.27-5.81-.27h-1.22v4.6h5.14c1.42,0,2.03-.07,3.11-.2,2.16-1.28,3.11-2.03,4.12-3.31,1.35-1.62,1.96-2.97,2.3-5.21h-1.69c-2.23,0-2.91.07-4.39.27v-9.53c2.23.2,4.66.34,7.57.34h16.9c3.11,0,5.27-.14,7.03-.34-.2,1.35-.27,2.23-.41,5.61-.27,8.11-.68,11.69-1.49,14.26-.54,1.56-1.69,2.84-3.18,3.58-1.35.61-4.33.95-7.98.95-.61,0-1.62,0-2.97-.07-.27-3.31-.68-5.14-1.69-7.71-1.35,2.84-2.3,4.12-4.66,6.08-1.83,1.62-2.91,2.37-4.6,3.18h18.59c3.65,0,5.54-.07,7.57-.27-.2,2.1-.27,3.79-.27,7.23v7.64c0,3.72.07,5.41.27,7.23-1.96-.13-3.92-.2-6.96-.2h-14.8c-3.65,0-5.75.07-7.64.2.27-2.09.34-3.79.34-7.03v-9.8c0-3.04,0-3.85-.14-5.21,1.08.14,1.49.14,2.37.2-1.42-2.5-2.1-3.38-3.72-5.14v6.56c-1.76-.27-3.04-.34-6.15-.34h-1.28v5.68h1.83c2.7,0,3.79-.07,5.48-.34v9.19c-1.69-.27-2.84-.34-5.48-.34h-1.83v8.04c3.58,1.01,7.91,1.35,16.36,1.35,9.94,0,17.91-.41,25.01-1.15-1.69,4.39-2.16,6.56-2.64,10.34-11.22.2-17.3.27-18.39.27-14.4,0-20.75-.68-24.94-2.7-3.31-1.55-6.08-3.85-8.65-7.23-1.01,4.19-1.83,6.76-3.45,10.61-2.84-3.38-3.79-4.33-7.03-6.83,1.96-4.33,2.77-7.17,3.51-12.44.47-3.11.61-5.34.61-8.92,0-1.08-.07-1.96-.2-3.11l8.45,1.22c-.07.81-.07,1.15-.07,2.3-.07,2.77-.14,4.66-.34,7.3.68,1.28,1.15,1.89,2.37,3.24v-16.49ZM215.56,80.08h9.26v-5.21h-9.26v5.21ZM220.09,50.14c-.41,2.84-.74,4.12-1.62,6.56,1.62.2,2.91.34,4.26.34s1.89-.27,2.16-1.01c.34-1.08.54-2.77.61-5.88h-5.41Z"/>
      <path class="st0" d="M266.46,56.97c-1.89,0-3.31.07-4.87.2v-3.31h-2.64l-5.07,5.68c-4.39-5.95-6.83-8.65-12.64-13.79l7.71-7.3c3.45,2.84,6.56,5.95,9.87,9.73v-3.45c0-1.76-.07-3.24-.2-4.66,1.89.14,3.65.2,6.76.2h32.38c2.64,0,4.53-.07,6.62-.27-.2,1.28-.27,2.43-.27,4.53v4.8c0,1.76.07,3.04.34,4.53h-3.38v3.31c-1.42-.14-2.3-.2-4.6-.2h-10.48v1.76h9.73c3.38,0,4.06,0,5.61-.14-.14,1.89-.2,2.97-.2,5.48v10.27c0,2.7.07,3.79.2,5.54-2.64-.14-3.72-.14-5.68-.14h-9.67v1.89h12.1c3.52,0,4.8-.07,6.02-.27v7.91c-1.22-.14-2.97-.2-6.29-.2h-11.83v2.97c1.96,0,3.38,0,4.33-.07,7.23,0,10.54-.2,16.02-.74-1.42,3.99-1.96,6.02-2.43,9.67-7.5.27-15.07.41-25.35.41s-14.26-.34-17.37-1.42c-2.7-.88-4.8-2.3-7.23-4.8-3.31,2.77-5.34,4.33-7.98,6.02-.61.41-.74.54-1.15.81l-4.39-10.88c2.1-.81,4.39-2.16,8.52-5.14v-12.84h-2.84c-1.55,0-2.37.07-4.26.34v-10.21c1.96.27,3.04.34,5.68.34h6.49c2.1,0,3.51-.07,5.21-.27-.2,2.1-.27,3.65-.27,7.71v16.7c1.08,1.55,1.76,2.23,3.04,2.84,2.5,1.22,6.29,1.76,12.23,1.76.27,0,.61,0,2.1-.07v-3.11h-10c-2.91,0-4.53.07-5.95.27v-7.98c2.37.2,3.25.27,5.81.27h10.14v-1.89h-8.99c-2.84,0-3.38,0-5.68.14.2-1.35.2-2.1.2-5.54v-12.17c0-2.03,0-2.5-.2-3.58,1.89.14,2.5.14,5.68.14h8.99v-1.76h-9.87ZM276.33,49.33v-1.01h-7.77v2.16h7.77v-1.15ZM271.2,64.47v2.16h5.14v-2.16h-5.14ZM271.2,71.9v2.1h5.14v-2.1h-5.14ZM294.25,50.48v-2.16h-8.25v2.16h8.25ZM286,66.63h5.68v-2.16h-5.68v2.16ZM286,74h5.68v-2.1h-5.68v2.1Z"/>
      <path class="st0" d="M348.73,69.27h14.19c3.38,0,5.21-.07,6.96-.27v7.3c-1.96-.2-3.51-.27-6.83-.27h-17.1v2.37h17.98c4.12,0,6.29-.07,7.91-.27v8.72c-2.37-.27-4.12-.34-7.91-.34h-10c4.39,2.7,11.9,4.93,19.4,5.81-2.37,3.52-2.77,4.33-4.93,9.4-5.41-1.28-8.31-2.23-12.3-4.06-4.53-2.03-7.17-3.72-10.34-6.49.13,1.76.2,2.84.2,3.85v2.57c0,2.16.07,3.18.41,4.6h-11.09c.27-1.42.41-2.57.41-4.6v-2.57c0-1.49,0-2.5.2-3.85-3.31,3.04-6.49,5.07-11.22,7.1-3.25,1.35-7.1,2.57-11.22,3.58-1.28-3.45-2.57-5.81-4.87-9.06,8.11-1.15,14.13-3.18,18.79-6.29h-9.53c-3.72,0-5.54.07-7.77.34v-8.72c1.62.2,3.58.27,7.77.27h17.84v-2.37h-11.96c-2.77,0-4.66.07-6.69.2.2-1.76.27-3.52.27-6.22v-5.54c0-1.69,0-3.04.2-5.07-1.82,1.96-2.77,2.77-5,4.6-1.28-4.33-2.23-6.49-4.39-9.8,4.93-3.52,8.25-7.1,11.42-12.3.95-1.49,1.76-3.18,2.1-4.33l10.88,1.42c-1.22,2.23-1.69,3.04-2.91,4.87h9.67c1.22-1.96,2.1-3.79,2.97-6.22l10.88.95c-1.08,2.03-1.96,3.52-3.04,5.27h12.17c3.04,0,4.87-.07,6.96-.34v8.04c-1.42-.14-2.97-.2-5.27-.2h-15.21v2.1h11.63c3.99,0,4.87,0,6.83-.27v6.22c-2.03-.2-2.7-.2-6.83-.2h-11.63v2.1h11.63c4.06,0,4.6,0,6.83-.27v6.22c-1.76-.2-2.77-.2-6.83-.2h-11.63v2.23ZM338.79,51.36h-11.56v2.1h11.56v-2.1ZM338.79,59.2h-11.56v2.1h11.56v-2.1ZM327.24,67.04v2.23h11.56v-2.23h-11.56Z"/>
      <path class="st0" d="M377.93,102.32c.27-2.23.41-4.94.41-9.46v-45.49c0-3.11-.07-5.21-.34-7.91,2.64.27,4.73.34,8.04.34h45.15c3.38,0,5.47-.07,7.98-.34-.27,2.7-.34,4.6-.34,7.91v45.49c0,4.12.14,7.37.41,9.46h-10.28v-2.16h-40.69v2.16h-10.34ZM424.58,78.39c1.62-.07,1.96-.07,2.91-.2v6.29c-1.55-.14-3.18-.2-5-.2h-2.37v1.49c0,2.7-.81,3.85-3.25,4.53-1.62.41-3.18.54-7.84.54h-2.37c-.47-1.55-.68-2.1-1.15-3.11l-5.48,3.58c-1.76-1.96-3.25-3.24-5.61-4.93l4.26-2.1h-4.06c-1.89,0-3.51.07-4.93.2v-6.29c1.55.2,2.91.27,5.14.27h16.76v-2.03q-7.37.34-16.49.47c-1.69.07-2.77.14-4.33.34l-1.62-5.81c1.76.27,4.93.41,10.34.41h4.26v-1.69h-7.17c-2.5,0-3.45.07-4.66.2.13-1.62.2-2.64.2-4.26v-5.34c0-1.62-.07-2.77-.2-4.19,1.15.14,2.16.14,4.66.14h7.3v-1.62h-7.84c-2.57,0-4.46.07-5.88.27v-5.95c1.69.2,3.31.27,5.88.27h7.84v-1.62h-15.55v44.01h40.49v-16.36l-4.26,2.7ZM400.04,60.35v1.55h4.53v-1.55h-4.53ZM400.04,65.08v1.49h4.53v-1.49h-4.53ZM402.47,84.27c.88.54,1.15.68,1.96,1.35,1.69.2,2.91.27,4.39.27,2.1,0,2.77-.27,2.77-1.08v-.54h-9.12ZM412.14,61.9h4.93v-1.55h-4.93v1.55ZM412.14,66.56h4.93v-1.49h-4.93v1.49ZM412.48,71.7c2.91-.07,3.85-.14,6.22-.27q-.34-.27-1.28-1.28h-4.93v1.55ZM428.83,48.04h-16.02v1.62h8.38c2.5,0,4.12-.07,5.95-.27v5.95c-1.62-.2-3.38-.27-5.88-.27h-8.45v1.62h7.64c2.57,0,3.51,0,4.73-.14-.13,1.35-.2,2.37-.2,4.19v5.34c0,1.62,0,2.16.13,3.65,1.76,1.82,2.5,2.7,3.72,4.33v-26.02ZM420.11,78.46h3.65c-.74-1.42-.95-1.69-1.62-2.7l-2.03.13v2.57Z"/>
    </g>
    <g>
      <path class="st1" d="M194.5,117.3c.95.47,1.71,1.13,2.27,1.99.56.85.84,1.81.84,2.86,0,2.78-1.26,4.53-3.78,5.25v.13c2.87.66,4.3,2.54,4.3,5.65,0,1.18-.29,2.23-.87,3.14-.58.91-1.37,1.62-2.38,2.12-1.01.5-2.11.75-3.32.75h-15.24v-22.59h15.04c1.14,0,2.18.24,3.14.71ZM183.58,125.39h4.99c.48,0,.88-.17,1.2-.51.32-.34.48-.76.48-1.26v-.33c0-.48-.16-.89-.49-1.23-.33-.34-.72-.51-1.18-.51h-4.99v3.84ZM183.58,133.93h5.52c.48,0,.88-.17,1.2-.51.32-.34.48-.76.48-1.26v-.33c0-.5-.16-.92-.48-1.26-.32-.34-.72-.51-1.2-.51h-5.52v3.88Z"/>
      <path class="st1" d="M201.87,116.59h19.54v5.42h-12.28v3.12h10.51v5.19h-10.51v3.45h12.51v5.42h-19.77v-22.59Z"/>
      <path class="st1" d="M239.61,139.19h-7.26v-8.77l-8.97-13.83h8.34l4.33,7.52h.13l4.33-7.52h7.91l-8.83,13.83v8.77Z"/>
      <path class="st1" d="M269.43,119.19c2.12,1.99,3.19,4.89,3.19,8.7s-1.06,6.71-3.19,8.7c-2.12,1.99-5.13,2.99-9.03,2.99s-6.9-.99-9.01-2.97c-2.11-1.98-3.17-4.89-3.17-8.72s1.06-6.74,3.17-8.72c2.11-1.98,5.12-2.97,9.01-2.97s6.91,1,9.03,2.99ZM256.85,123.03c-.81.94-1.22,2.21-1.22,3.81v2.1c0,1.6.41,2.87,1.22,3.81.81.94,1.99,1.41,3.55,1.41s2.74-.47,3.56-1.41c.82-.94,1.23-2.21,1.23-3.81v-2.1c0-1.6-.41-2.87-1.23-3.81-.82-.94-2.01-1.41-3.56-1.41s-2.74.47-3.55,1.41Z"/>
      <path class="st1" d="M292.68,139.19l-9.49-10.97v10.97h-6.67v-22.59h6.34l9.49,11.13v-11.13h6.67v22.59h-6.34Z"/>
      <path class="st1" d="M325.52,127.89c0,7.53-3.95,11.3-11.86,11.3h-9.79v-22.59h9.79c7.9,0,11.86,3.77,11.86,11.3ZM311.13,133.77h2.4c3.04,0,4.57-1.63,4.57-4.89v-1.97c0-3.26-1.52-4.89-4.57-4.89h-2.4v11.76Z"/>
      <path class="st1" d="M340.36,116.59h7.26v16.81h11.59v5.78h-18.85v-22.59Z"/>
      <path class="st1" d="M380.99,137.15c-1.95,1.62-4.72,2.43-8.31,2.43s-6.37-.81-8.33-2.43c-1.96-1.62-2.94-3.97-2.94-7.06v-13.5h7.26v13.4c0,1.27.34,2.28,1.02,3.04.68.75,1.66,1.13,2.96,1.13s2.28-.38,2.97-1.15,1.03-1.77,1.03-3.02v-13.4h7.26v13.5c0,3.09-.97,5.44-2.92,7.06Z"/>
      <path class="st1" d="M407.49,118.71c1.95,1.67,2.92,4.07,2.92,7.18h-6.93c0-1.31-.34-2.35-1.03-3.12-.69-.77-1.67-1.15-2.94-1.15-1.47,0-2.54.46-3.23,1.38s-1.04,2.2-1.04,3.84v2.1c0,1.62.35,2.9,1.04,3.83s1.75,1.4,3.17,1.4,2.46-.36,3.19-1.08,1.08-1.74,1.08-3.05h6.7c0,3.09-.95,5.45-2.84,7.09-1.89,1.64-4.57,2.46-8.03,2.46-3.85,0-6.77-.99-8.75-2.96-1.98-1.97-2.97-4.88-2.97-8.74s.99-6.77,2.97-8.74c1.98-1.97,4.9-2.96,8.75-2.96,3.35,0,6,.84,7.95,2.51Z"/>
      <path class="st1" d="M429.62,116.59h9l-8.11,9.29,8.28,13.3h-8.57l-4.7-8.28-3.94,3.22v5.06h-7.26v-22.59h7.26v9.66l8.05-9.66Z"/>
    </g>
    <g>
      <path class="st1" d="M182.29,161.03c-1.31,0-2.47-.29-3.5-.87-1.02-.58-1.84-1.43-2.44-2.54s-.9-2.46-.9-4.05c0-1.19.18-2.25.53-3.17.35-.93.84-1.72,1.46-2.37.62-.65,1.34-1.15,2.17-1.49.83-.34,1.73-.51,2.69-.51,1.03,0,1.91.19,2.62.57.72.38,1.31.8,1.76,1.27l-1.39,1.64c-.37-.35-.77-.65-1.22-.89-.45-.24-1.02-.36-1.69-.36-.85,0-1.59.21-2.23.64-.64.42-1.14,1.02-1.5,1.8-.36.78-.54,1.71-.54,2.79s.17,2.04.5,2.83c.33.79.83,1.4,1.49,1.82.66.42,1.47.64,2.44.64.4,0,.79-.06,1.16-.17.37-.11.66-.26.88-.46v-3.11h-2.72v-2.13h5.05v6.4c-.48.48-1.13.89-1.94,1.22-.81.33-1.7.5-2.68.5Z"/>
      <path class="st1" d="M190.1,160.76v-14.47h4.88c1.02,0,1.93.13,2.73.4s1.44.71,1.9,1.34c.46.63.7,1.48.7,2.55s-.23,1.9-.7,2.58c-.46.67-1.1,1.17-1.9,1.49s-1.71.48-2.73.48h-2.29v5.64h-2.58ZM192.69,153.06h2.02c.99,0,1.75-.21,2.28-.63s.79-1.04.79-1.86-.26-1.4-.79-1.72-1.29-.49-2.28-.49h-2.02v4.7ZM197.97,160.76l-3.49-6.33,1.86-1.57,4.52,7.89h-2.9Z"/>
      <path class="st1" d="M208.82,161.03c-1.25,0-2.36-.31-3.32-.92-.96-.61-1.71-1.48-2.25-2.61-.54-1.13-.81-2.47-.81-4.02s.27-2.9.81-4.01c.54-1.11,1.29-1.96,2.25-2.55.96-.59,2.07-.88,3.32-.88s2.38.3,3.33.89c.95.59,1.7,1.44,2.24,2.55.54,1.1.81,2.44.81,4s-.27,2.89-.81,4.02c-.54,1.13-1.29,2-2.24,2.61-.95.61-2.06.92-3.33.92ZM208.82,158.78c.76,0,1.42-.22,1.98-.66.56-.44,1-1.05,1.3-1.85.31-.8.46-1.73.46-2.8s-.15-2.01-.46-2.79c-.31-.78-.74-1.37-1.3-1.79-.56-.42-1.22-.63-1.98-.63s-1.42.21-1.98.63c-.56.42-.99,1.01-1.29,1.79-.3.78-.45,1.71-.45,2.79s.15,2,.45,2.8c.3.8.73,1.41,1.29,1.85.56.44,1.22.66,1.98.66Z"/>
      <path class="st1" d="M223.55,161.03c-.84,0-1.59-.12-2.27-.37s-1.26-.63-1.73-1.16-.84-1.21-1.1-2.06c-.25-.85-.38-1.86-.38-3.04v-8.13h2.57v8.32c0,1.03.12,1.85.37,2.47.25.61.59,1.05,1.03,1.31.44.26.94.39,1.52.39s1.12-.13,1.57-.39c.44-.26.79-.7,1.05-1.31.25-.61.38-1.44.38-2.47v-8.32h2.49v8.13c0,1.17-.13,2.19-.38,3.04-.25.85-.62,1.53-1.1,2.06-.48.52-1.05.91-1.72,1.16s-1.43.37-2.28.37Z"/>
      <path class="st1" d="M232.62,160.76v-14.47h4.56c1.08,0,2.04.14,2.88.42s1.5.75,1.99,1.4c.49.65.73,1.53.73,2.64s-.24,1.96-.72,2.65c-.48.7-1.14,1.21-1.98,1.55s-1.78.5-2.82.5h-2.06v5.31h-2.58ZM235.2,153.4h1.86c1.07,0,1.87-.22,2.39-.66.52-.44.78-1.1.78-1.99s-.27-1.51-.82-1.86-1.36-.53-2.45-.53h-1.76v5.03Z"/>
      <path class="st1" d="M249.92,160.76v-14.47h2.58v12.3h6.01v2.17h-8.6Z"/>
      <path class="st1" d="M261.05,160.76v-14.47h2.58v14.47h-2.58Z"/>
      <path class="st1" d="M267.29,160.76v-14.47h2.92l2.54,7.07c.16.44.31.91.47,1.39.16.48.31.96.45,1.43h.1c.16-.47.31-.95.46-1.43.15-.48.3-.95.44-1.39l2.51-7.07h2.92v14.47h-2.37v-6.58c0-.46.02-.96.06-1.5.04-.54.08-1.09.14-1.64.05-.55.1-1.04.14-1.49h-.08l-1.17,3.37-2.37,6.48h-1.55l-2.37-6.48-1.16-3.37h-.08c.05.44.1.94.15,1.49.04.55.09,1.09.13,1.64s.06,1.04.06,1.5v6.58h-2.33Z"/>
      <path class="st1" d="M283.78,160.76v-14.47h2.58v14.47h-2.58Z"/>
      <path class="st1" d="M292.93,160.76v-12.3h-4.15v-2.17h10.93v2.17h-4.17v12.3h-2.6Z"/>
      <path class="st1" d="M302.13,160.76v-14.47h8.71v2.17h-6.13v3.68h5.19v2.17h-5.19v4.27h6.34v2.17h-8.93Z"/>
      <path class="st1" d="M314.04,160.76v-14.47h3.86c1.49,0,2.76.27,3.81.8s1.85,1.33,2.41,2.39c.56,1.06.83,2.39.83,4s-.28,2.93-.83,4.01c-.55,1.08-1.35,1.9-2.38,2.45-1.03.55-2.26.82-3.7.82h-3.99ZM316.62,158.66h1.1c.97,0,1.79-.19,2.48-.56s1.21-.94,1.57-1.71c.36-.77.54-1.74.54-2.92s-.18-2.17-.54-2.92-.88-1.29-1.57-1.64-1.51-.53-2.48-.53h-1.1v10.28Z"/>
    </g>
  </g>
</svg>